# xmcd
#
# Track frame offsets:
#	150
#	13718
#	27303
#	48715
#	70131
#	84649
#	99164
#	124747
#	150336
#	170323
#	190309
#	206871
#	223461
#	233840
#	244220
#	255395
#	266581
#	282258
#	297908
#	317621
# Disc length: 4495 seconds
# Revision: 1
# Processed by: cddbd v1.5.2PL0 Copyright (c) Steve Scherf et al.
#
# Submitted via: libkcddb 0.10
#
DISCID=24118d14
DTITLE=freedb-Suche gestartet. - Karaoke
DYEAR=2005
DGENRE=
TTITLE0=
TTITLE1=
TTITLE2=Karaoke
TTITLE3=
TTITLE4=
TTITLE5=
TTITLE6=
TTITLE7=
TTITLE8=
TTITLE9=
TTITLE10=
TTITLE11=
TTITLE12=
TTITLE13=
TTITLE14=
TTITLE15=
TTITLE16=
TTITLE17=
TTITLE18=
TTITLE19=
EXTD=
EXTT0=
EXTT1=
EXTT2=
EXTT3=
EXTT4=
EXTT5=
EXTT6=
EXTT7=
EXTT8=
EXTT9=
EXTT10=
EXTT11=
EXTT12=
EXTT13=
EXTT14=
EXTT15=
EXTT16=
EXTT17=
EXTT18=
EXTT19=
PLAYORDER=
